<svg width="160" height="55" viewBox="0 0 160 55" fill="none" xmlns="http://www.w3.org/2000/svg">
    <path d="M95.6619 22.3286L85.5389 13L85.5278 13.0103L75.4156 22.2657L74 24.3643H74.8829V38H85.5278H96.1726V24.3643H97L95.6619 22.3286Z" fill="#0EA45C" fill-opacity="0.35"/>
    <path d="M96.1346 24.3643H97L95.6003 22.3286L85.0116 13L85 13.0103V38H96.1346V24.3643Z" fill="#0EA45C" fill-opacity="0.35"/>
    <path d="M84.9996 12L72 25H72.0004L85 12.0004L84.9996 12Z" fill="#0EA45C" fill-opacity="0.35"/>
    <path d="M85.4998 12.0104L85.489 12L85.4886 12.0004L72 25H74.3065L85.4998 14.2211L85.5106 14.2106L96.6393 25H99L85.4998 12.0104Z" fill="#0EA45C" fill-opacity="0.35"/>
    <path d="M96.5519 25H99L85 12V14.2125L85.0112 14.202L96.5519 25Z" fill="#0EA45C" fill-opacity="0.35"/>
    <path d="M94.2531 21.4928L91.0891 18.3289V15.1649H94.2531V21.4928Z" fill="#0EA45C" fill-opacity="0.35"/>
    <path d="M72 37.418H98.999V39H72V37.418Z" fill="#0EA45C" fill-opacity="0.35"/>
    <path d="M85 37H99V39H85V37Z" fill="#0EA45C" fill-opacity="0.35"/>
    <path d="M0.945 34.955H1.855C2.345 34.955 2.695 34.85 2.905 34.64C3.115 34.4067 3.22 34.0567 3.22 33.59V25.54C3.22 25.0967 3.12667 24.77 2.94 24.56C2.75333 24.35 2.42667 24.245 1.96 24.245H0.945V21.2H6.93L7.385 23.055C8.17833 21.8183 9.60167 21.2 11.655 21.2H13.475V24.245H11.095C9.92833 24.245 9.08833 24.5133 8.575 25.05C8.06167 25.5867 7.805 26.4033 7.805 27.5V33.66C7.805 34.1033 7.89833 34.43 8.085 34.64C8.295 34.85 8.63333 34.955 9.1 34.955H10.01V38H0.945V34.955ZM24.022 38.525C21.222 38.525 19.017 37.79 17.407 36.32C15.8204 34.8267 15.027 32.645 15.027 29.775C15.027 26.7417 15.7854 24.4667 17.302 22.95C18.8187 21.4333 20.977 20.675 23.777 20.675C26.4837 20.675 28.537 21.4333 29.937 22.95C31.3604 24.4433 32.072 26.4733 32.072 29.04V30.685H19.577C19.577 32.3183 19.962 33.52 20.732 34.29C21.502 35.0367 22.6104 35.41 24.057 35.41C25.5037 35.41 26.6587 35.2233 27.522 34.85V33.625H31.477V36.285C29.7037 37.7783 27.2187 38.525 24.022 38.525ZM27.522 28.06C27.522 26.6133 27.207 25.54 26.577 24.84C25.947 24.14 24.9904 23.79 23.707 23.79C22.377 23.79 21.3504 24.1633 20.627 24.91C19.927 25.6333 19.577 26.6833 19.577 28.06H27.522ZM33.9626 34.955H34.8726C35.3626 34.955 35.7126 34.85 35.9226 34.64C36.1326 34.4067 36.2376 34.0567 36.2376 33.59V25.54C36.2376 25.0967 36.1326 24.77 35.9226 24.56C35.7359 24.35 35.4092 24.245 34.9426 24.245H33.9626V21.2H39.1776L39.3876 23.51C40.1576 22.5533 41.0559 21.8417 42.0826 21.375C43.1326 20.9083 44.3692 20.675 45.7926 20.675C47.7526 20.675 49.1876 21.1767 50.0976 22.18C51.0076 23.16 51.4626 24.6067 51.4626 26.52V33.66C51.4626 34.1033 51.5559 34.43 51.7426 34.64C51.9526 34.85 52.2909 34.955 52.7576 34.955H53.6676V38H46.8776V26.555C46.8776 25.5283 46.6676 24.7933 46.2476 24.35C45.8276 23.8833 45.1392 23.65 44.1826 23.65C43.1792 23.65 42.3626 23.9417 41.7326 24.525C41.1259 25.085 40.8226 25.8783 40.8226 26.905V33.66C40.8226 34.1033 40.9159 34.43 41.1026 34.64C41.3126 34.85 41.6509 34.955 42.1176 34.955H43.0276V38H33.9626V34.955ZM62.7769 38.525C60.6302 38.525 59.0085 38.035 57.9119 37.055C56.8385 36.0517 56.3019 34.605 56.3019 32.715V24.245H53.6419V21.2H56.3019V17.595L60.8869 16.23V21.2H65.6819V24.245H60.8869V33.065C60.8869 33.9283 61.0619 34.5583 61.4119 34.955C61.7852 35.3517 62.3335 35.55 63.0569 35.55C63.9435 35.55 64.6319 35.34 65.1219 34.92V33.415H68.8319V36.355C67.3852 37.8017 65.3669 38.525 62.7769 38.525Z" fill="#474747"/>
    <path d="M113.73 39.525C111.583 39.525 109.962 39.035 108.865 38.055C107.792 37.0517 107.255 35.605 107.255 33.715V25.245H104.595V22.2H107.255V18.595L111.84 17.23V22.2H116.635V25.245H111.84V34.065C111.84 34.9283 112.015 35.5583 112.365 35.955C112.738 36.3517 113.287 36.55 114.01 36.55C114.897 36.55 115.585 36.34 116.075 35.92V34.415H119.785V37.355C118.338 38.8017 116.32 39.525 113.73 39.525ZM120.633 35.955H121.543C122.033 35.955 122.383 35.85 122.593 35.64C122.803 35.4067 122.908 35.0567 122.908 34.59V20.345C122.908 19.8317 122.815 19.4583 122.628 19.225C122.465 18.9917 122.127 18.875 121.613 18.875H120.633V15.83H127.038V23.775C127.925 22.9817 128.788 22.4333 129.628 22.13C130.492 21.8267 131.553 21.675 132.813 21.675C134.68 21.675 136.045 22.1767 136.908 23.18C137.772 24.16 138.203 25.6067 138.203 27.52V34.66C138.203 35.1033 138.297 35.43 138.483 35.64C138.693 35.85 139.032 35.955 139.498 35.955H140.408V39H133.618V27.555C133.618 26.5283 133.397 25.7933 132.953 25.35C132.533 24.8833 131.857 24.65 130.923 24.65C129.92 24.65 129.092 24.9417 128.438 25.525C127.808 26.085 127.493 26.8783 127.493 27.905V34.66C127.493 35.1033 127.587 35.43 127.773 35.64C127.983 35.85 128.322 35.955 128.788 35.955H129.698V39H120.633V35.955ZM150.957 39.525C148.157 39.525 145.952 38.79 144.342 37.32C142.755 35.8267 141.962 33.645 141.962 30.775C141.962 27.7417 142.72 25.4667 144.237 23.95C145.753 22.4333 147.912 21.675 150.712 21.675C153.418 21.675 155.472 22.4333 156.872 23.95C158.295 25.4433 159.007 27.4733 159.007 30.04V31.685H146.512C146.512 33.3183 146.897 34.52 147.667 35.29C148.437 36.0367 149.545 36.41 150.992 36.41C152.438 36.41 153.593 36.2233 154.457 35.85V34.625H158.412V37.285C156.638 38.7783 154.153 39.525 150.957 39.525ZM154.457 29.06C154.457 27.6133 154.142 26.54 153.512 25.84C152.882 25.14 151.925 24.79 150.642 24.79C149.312 24.79 148.285 25.1633 147.562 25.91C146.862 26.6333 146.512 27.6833 146.512 29.06H154.457Z" fill="#474747"/>
</svg>
